# xmcd
#
# Track frame offsets:
#	150
#	15395
#	29270
#	42095
#	55632
#	68172
#	79872
#	100707
#	115280
#	132905
#	147162
#	160992
#	174717
#
# Disc length: 2574 seconds
#
# Revision: 1
# Processed by: cddbd v1.5.2PL0 Copyright (c) Steve Scherf et al.
# Submitted via: audiograbber 1.83.01
#
DISCID=a30a0c0d
DTITLE=Vika Bull and The Essential R&B Band - At Last - The Etta James Story
DYEAR=2013
DGENRE=R&B
TTITLE0=I just want to make love to you
TTITLE1=Something's got a hold on me
TTITLE2=Roll with me Henry
TTITLE3=Spoonful
TTITLE4=Fool that I am
TTITLE5=Strange things happening everyday
TTITLE6=Sugar on the floor
TTITLE7=Lovesick blues
TTITLE8=A Sunday kind of love
TTITLE9=I'd rather go blind
TTITLE10=Puchover
TTITLE11=At last
TTITLE12=Yake it to the limit
EXTD=Fanfare Records
EXTT0=
EXTT1=
EXTT2=
EXTT3=
EXTT4=
EXTT5=
EXTT6=
EXTT7=
EXTT8=
EXTT9=
EXTT10=
EXTT11=
EXTT12=
PLAYORDER=
